<svg width="20" height="20" viewBox="0 0 20 20" fill="none" xmlns="http://www.w3.org/2000/svg">
<path d="M11.667 1.75C12.5412 1.75018 13.2498 2.45882 13.25 3.33301V5.08398H16.666C17.0802 5.08398 17.416 5.41977 17.416 5.83398C17.4157 6.2479 17.08 6.58398 16.666 6.58398H16.5234L15.748 15.8955L15.7461 15.8945C15.7134 17.2005 14.6478 18.2497 13.334 18.25H6.66699C5.35321 18.25 4.2861 17.2013 4.25293 15.8955L3.47754 6.58398H3.33301C2.91916 6.58381 2.58336 6.24779 2.58301 5.83398C2.58301 5.41988 2.91894 5.08416 3.33301 5.08398H6.75V3.33301C6.75018 2.45882 7.45882 1.75018 8.33301 1.75H11.667ZM5.74805 15.7705C5.74976 15.7911 5.75 15.8123 5.75 15.833C5.75 16.3393 6.16073 16.75 6.66699 16.75H13.334C13.8399 16.7496 14.25 16.3391 14.25 15.833C14.25 15.8123 14.2512 15.7911 14.2529 15.7705L15.0186 6.58398H4.98145L5.74805 15.7705ZM8.33398 8.41699C8.7479 8.41734 9.08398 8.753 9.08398 9.16699V14.167C9.08381 14.5808 8.74779 14.9166 8.33398 14.917C7.91988 14.917 7.58416 14.5811 7.58398 14.167V9.16699C7.58398 8.75278 7.91977 8.41699 8.33398 8.41699ZM11.667 8.41699C12.0811 8.41717 12.417 8.75289 12.417 9.16699V14.167C12.4168 14.5809 12.0809 14.9168 11.667 14.917C11.2529 14.917 10.9172 14.5811 10.917 14.167V9.16699C10.917 8.75278 11.2528 8.41699 11.667 8.41699ZM8.33301 3.25C8.28724 3.25018 8.25018 3.28724 8.25 3.33301V5.08398H11.75V3.33301C11.7498 3.28724 11.7128 3.25018 11.667 3.25H8.33301Z" fill="white"/>
</svg>
